<svg width="512" height="256" xmlns="http://www.w3.org/2000/svg">
  <!-- Define patterns and colors -->
  <defs>
    <!-- Light wood texture pattern -->
    <pattern id="woodGrain" x="0" y="0" width="4" height="4" patternUnits="userSpaceOnUse">
      <rect width="4" height="4" fill="#d4a574"/>
      <rect x="0" y="1" width="4" height="1" fill="#c99a68" opacity="0.3"/>
    </pattern>
    
    <!-- Carpet texture -->
    <pattern id="carpetTexture" x="0" y="0" width="2" height="2" patternUnits="userSpaceOnUse">
      <rect width="2" height="2" fill="#9b8fb5"/>
      <rect x="0" y="0" width="1" height="1" fill="#8a7fa5" opacity="0.5"/>
      <rect x="1" y="1" width="1" height="1" fill="#8a7fa5" opacity="0.5"/>
    </pattern>
  </defs>
  
  <!-- Row 1: Wood Floor Tiles (32x32 each) -->
  <!-- Tile 1: Light wood floor -->
  <rect x="0" y="0" width="32" height="32" fill="#e8c9a0"/>
  <rect x="0" y="0" width="32" height="2" fill="#d4a574"/>
  <rect x="0" y="30" width="32" height="2" fill="#c99a68"/>
  <line x1="0" y1="16" x2="32" y2="16" stroke="#d4a574" stroke-width="1" opacity="0.3"/>
  
  <!-- Tile 2: Medium wood floor -->
  <rect x="32" y="0" width="32" height="32" fill="#d4a574"/>
  <rect x="32" y="0" width="32" height="2" fill="#c99a68"/>
  <rect x="32" y="30" width="32" height="2" fill="#b8845c"/>
  <line x1="32" y1="16" x2="64" y2="16" stroke="#c99a68" stroke-width="1" opacity="0.3"/>
  
  <!-- Tile 3: Dark wood floor -->
  <rect x="64" y="0" width="32" height="32" fill="#8b6f47"/>
  <rect x="64" y="0" width="32" height="2" fill="#7a5f3a"/>
  <rect x="64" y="30" width="32" height="2" fill="#694f2e"/>
  <line x1="64" y1="16" x2="96" y2="16" stroke="#7a5f3a" stroke-width="1" opacity="0.3"/>
  
  <!-- Tile 4: Beige tile -->
  <rect x="96" y="0" width="32" height="32" fill="#f5e6d3"/>
  <rect x="96" y="0" width="32" height="1" fill="#e0d1be"/>
  <rect x="96" y="31" width="32" height="1" fill="#e0d1be"/>
  <rect x="96" y="0" width="1" height="32" fill="#e0d1be"/>
  <rect x="127" y="0" width="1" height="32" fill="#e0d1be"/>
  
  <!-- Tile 5: Gray concrete -->
  <rect x="128" y="0" width="32" height="32" fill="#b8bcc4"/>
  <rect x="130" y="2" width="2" height="2" fill="#a0a4ac" opacity="0.5"/>
  <rect x="138" y="8" width="2" height="2" fill="#a0a4ac" opacity="0.5"/>
  <rect x="145" y="15" width="2" height="2" fill="#a0a4ac" opacity="0.5"/>
  <rect x="134" y="22" width="2" height="2" fill="#a0a4ac" opacity="0.5"/>
  <rect x="150" y="26" width="2" height="2" fill="#a0a4ac" opacity="0.5"/>
  
  <!-- Tile 6: Light gray tile -->
  <rect x="160" y="0" width="32" height="32" fill="#d4d8de"/>
  <rect x="160" y="0" width="32" height="1" fill="#c0c4ca"/>
  <rect x="160" y="31" width="32" height="1" fill="#c0c4ca"/>
  <rect x="160" y="0" width="1" height="32" fill="#c0c4ca"/>
  <rect x="191" y="0" width="1" height="32" fill="#c0c4ca"/>
  
  <!-- Tile 7: Dark concrete -->
  <rect x="192" y="0" width="32" height="32" fill="#6e7278"/>
  <rect x="194" y="3" width="2" height="2" fill="#5c6064" opacity="0.5"/>
  <rect x="202" y="9" width="2" height="2" fill="#5c6064" opacity="0.5"/>
  <rect x="210" y="18" width="2" height="2" fill="#5c6064" opacity="0.5"/>
  <rect x="197" y="24" width="2" height="2" fill="#5c6064" opacity="0.5"/>
  
  <!-- Tile 8: White tile -->
  <rect x="224" y="0" width="32" height="32" fill="#ffffff"/>
  <rect x="224" y="0" width="32" height="1" fill="#e8e8e8"/>
  <rect x="224" y="31" width="32" height="1" fill="#e8e8e8"/>
  <rect x="224" y="0" width="1" height="32" fill="#e8e8e8"/>
  <rect x="255" y="0" width="1" height="32" fill="#e8e8e8"/>
  
  <!-- Row 2: Carpet and specialty tiles -->
  <!-- Tile 9: Purple carpet -->
  <rect x="0" y="32" width="32" height="32" fill="#9b8fb5"/>
  <rect x="2" y="34" width="1" height="1" fill="#8a7fa5" opacity="0.5"/>
  <rect x="6" y="36" width="1" height="1" fill="#8a7fa5" opacity="0.5"/>
  <rect x="10" y="38" width="1" height="1" fill="#8a7fa5" opacity="0.5"/>
  <rect x="14" y="40" width="1" height="1" fill="#8a7fa5" opacity="0.5"/>
  <rect x="18" y="42" width="1" height="1" fill="#8a7fa5" opacity="0.5"/>
  <rect x="22" y="44" width="1" height="1" fill="#8a7fa5" opacity="0.5"/>
  <rect x="26" y="46" width="1" height="1" fill="#8a7fa5" opacity="0.5"/>
  
  <!-- Tile 10: Blue carpet -->
  <rect x="32" y="32" width="32" height="32" fill="#7ba3c4"/>
  <rect x="34" y="34" width="1" height="1" fill="#6a92b3" opacity="0.5"/>
  <rect x="38" y="36" width="1" height="1" fill="#6a92b3" opacity="0.5"/>
  <rect x="42" y="38" width="1" height="1" fill="#6a92b3" opacity="0.5"/>
  <rect x="46" y="40" width="1" height="1" fill="#6a92b3" opacity="0.5"/>
  <rect x="50" y="42" width="1" height="1" fill="#6a92b3" opacity="0.5"/>
  <rect x="54" y="44" width="1" height="1" fill="#6a92b3" opacity="0.5"/>
  <rect x="58" y="46" width="1" height="1" fill="#6a92b3" opacity="0.5"/>
  
  <!-- Tile 11: Red carpet -->
  <rect x="64" y="32" width="32" height="32" fill="#c47b7b"/>
  <rect x="66" y="34" width="1" height="1" fill="#b36a6a" opacity="0.5"/>
  <rect x="70" y="36" width="1" height="1" fill="#b36a6a" opacity="0.5"/>
  <rect x="74" y="38" width="1" height="1" fill="#b36a6a" opacity="0.5"/>
  <rect x="78" y="40" width="1" height="1" fill="#b36a6a" opacity="0.5"/>
  <rect x="82" y="42" width="1" height="1" fill="#b36a6a" opacity="0.5"/>
  <rect x="86" y="44" width="1" height="1" fill="#b36a6a" opacity="0.5"/>
  <rect x="90" y="46" width="1" height="1" fill="#b36a6a" opacity="0.5"/>
  
  <!-- Tile 12: Green carpet -->
  <rect x="96" y="32" width="32" height="32" fill="#8fb59b"/>
  <rect x="98" y="34" width="1" height="1" fill="#7fa58a" opacity="0.5"/>
  <rect x="102" y="36" width="1" height="1" fill="#7fa58a" opacity="0.5"/>
  <rect x="106" y="38" width="1" height="1" fill="#7fa58a" opacity="0.5"/>
  <rect x="110" y="40" width="1" height="1" fill="#7fa58a" opacity="0.5"/>
  <rect x="114" y="42" width="1" height="1" fill="#7fa58a" opacity="0.5"/>
  <rect x="118" y="44" width="1" height="1" fill="#7fa58a" opacity="0.5"/>
  <rect x="122" y="46" width="1" height="1" fill="#7fa58a" opacity="0.5"/>
  
  <!-- Tile 13: Checkered floor light -->
  <rect x="128" y="32" width="16" height="16" fill="#f0f0f0"/>
  <rect x="144" y="32" width="16" height="16" fill="#d0d0d0"/>
  <rect x="128" y="48" width="16" height="16" fill="#d0d0d0"/>
  <rect x="144" y="48" width="16" height="16" fill="#f0f0f0"/>
  
  <!-- Tile 14: Checkered floor dark -->
  <rect x="160" y="32" width="16" height="16" fill="#808080"/>
  <rect x="176" y="32" width="16" height="16" fill="#606060"/>
  <rect x="160" y="48" width="16" height="16" fill="#606060"/>
  <rect x="176" y="48" width="16" height="16" fill="#808080"/>
  
  <!-- Tile 15: Stone floor -->
  <rect x="192" y="32" width="32" height="32" fill="#a8a8a8"/>
  <rect x="194" y="34" width="10" height="10" fill="#989898"/>
  <rect x="206" y="34" width="8" height="12" fill="#989898"/>
  <rect x="216" y="34" width="6" height="8" fill="#989898"/>
  <rect x="194" y="46" width="12" height="8" fill="#989898"/>
  <rect x="208" y="48" width="10" height="10" fill="#989898"/>
  
  <!-- Tile 16: Sand/beige floor -->
  <rect x="224" y="32" width="32" height="32" fill="#e8d4a0"/>
  <circle cx="228" cy="36" r="0.5" fill="#d4c08c" opacity="0.5"/>
  <circle cx="234" cy="38" r="0.5" fill="#d4c08c" opacity="0.5"/>
  <circle cx="240" cy="35" r="0.5" fill="#d4c08c" opacity="0.5"/>
  <circle cx="246" cy="40" r="0.5" fill="#d4c08c" opacity="0.5"/>
  <circle cx="230" cy="44" r="0.5" fill="#d4c08c" opacity="0.5"/>
  <circle cx="238" cy="48" r="0.5" fill="#d4c08c" opacity="0.5"/>
  <circle cx="248" cy="50" r="0.5" fill="#d4c08c" opacity="0.5"/>
  <circle cx="234" cy="54" r="0.5" fill="#d4c08c" opacity="0.5"/>
  <circle cx="244" cy="58" r="0.5" fill="#d4c08c" opacity="0.5"/>
  
  <!-- Row 3: Grass and outdoor tiles -->
  <!-- Tile 17: Light grass -->
  <rect x="0" y="64" width="32" height="32" fill="#8bc34a"/>
  <rect x="2" y="66" width="2" height="3" fill="#7cb342" opacity="0.6"/>
  <rect x="6" y="68" width="2" height="3" fill="#7cb342" opacity="0.6"/>
  <rect x="10" y="65" width="2" height="3" fill="#7cb342" opacity="0.6"/>
  <rect x="14" y="70" width="2" height="3" fill="#7cb342" opacity="0.6"/>
  <rect x="18" y="67" width="2" height="3" fill="#7cb342" opacity="0.6"/>
  <rect x="22" y="72" width="2" height="3" fill="#7cb342" opacity="0.6"/>
  <rect x="26" y="69" width="2" height="3" fill="#7cb342" opacity="0.6"/>
  <rect x="4" y="75" width="2" height="3" fill="#7cb342" opacity="0.6"/>
  <rect x="12" y="78" width="2" height="3" fill="#7cb342" opacity="0.6"/>
  <rect x="20" y="80" width="2" height="3" fill="#7cb342" opacity="0.6"/>
  <rect x="28" y="82" width="2" height="3" fill="#7cb342" opacity="0.6"/>
  
  <!-- Tile 18: Dark grass -->
  <rect x="32" y="64" width="32" height="32" fill="#689f38"/>
  <rect x="34" y="66" width="2" height="3" fill="#558b2f" opacity="0.6"/>
  <rect x="38" y="68" width="2" height="3" fill="#558b2f" opacity="0.6"/>
  <rect x="42" y="65" width="2" height="3" fill="#558b2f" opacity="0.6"/>
  <rect x="46" y="70" width="2" height="3" fill="#558b2f" opacity="0.6"/>
  <rect x="50" y="67" width="2" height="3" fill="#558b2f" opacity="0.6"/>
  <rect x="54" y="72" width="2" height="3" fill="#558b2f" opacity="0.6"/>
  <rect x="58" y="69" width="2" height="3" fill="#558b2f" opacity="0.6"/>
  <rect x="36" y="75" width="2" height="3" fill="#558b2f" opacity="0.6"/>
  <rect x="44" y="78" width="2" height="3" fill="#558b2f" opacity="0.6"/>
  <rect x="52" y="80" width="2" height="3" fill="#558b2f" opacity="0.6"/>
  <rect x="60" y="82" width="2" height="3" fill="#558b2f" opacity="0.6"/>
  
  <!-- Tile 19: Dirt -->
  <rect x="64" y="64" width="32" height="32" fill="#8d6e63"/>
  <circle cx="70" cy="70" r="1" fill="#795548" opacity="0.5"/>
  <circle cx="76" cy="68" r="1.5" fill="#795548" opacity="0.5"/>
  <circle cx="82" cy="72" r="1" fill="#795548" opacity="0.5"/>
  <circle cx="88" cy="70" r="1.5" fill="#795548" opacity="0.5"/>
  <circle cx="68" cy="78" r="1" fill="#795548" opacity="0.5"/>
  <circle cx="75" cy="82" r="1.5" fill="#795548" opacity="0.5"/>
  <circle cx="84" cy="84" r="1" fill="#795548" opacity="0.5"/>
  <circle cx="90" cy="88" r="1.5" fill="#795548" opacity="0.5"/>
  
  <!-- Tile 20: Gravel -->
  <rect x="96" y="64" width="32" height="32" fill="#9e9e9e"/>
  <circle cx="100" cy="68" r="1" fill="#757575"/>
  <circle cx="104" cy="70" r="1.5" fill="#757575"/>
  <circle cx="108" cy="68" r="1" fill="#757575"/>
  <circle cx="112" cy="72" r="1.5" fill="#757575"/>
  <circle cx="116" cy="69" r="1" fill="#757575"/>
  <circle cx="120" cy="74" r="1.5" fill="#757575"/>
  <circle cx="102" cy="78" r="1" fill="#757575"/>
  <circle cx="107" cy="82" r="1.5" fill="#757575"/>
  <circle cx="114" cy="84" r="1" fill="#757575"/>
  <circle cx="120" cy="86" r="1.5" fill="#757575"/>
  <circle cx="104" cy="90" r="1" fill="#757575"/>
  <circle cx="112" cy="92" r="1.5" fill="#757575"/>
  
  <!-- Tile 21: Water -->
  <rect x="128" y="64" width="32" height="32" fill="#4fc3f7"/>
  <path d="M 128 74 Q 136 72 144 74 T 160 74" stroke="#29b6f6" fill="none" stroke-width="1" opacity="0.5"/>
  <path d="M 128 82 Q 136 80 144 82 T 160 82" stroke="#29b6f6" fill="none" stroke-width="1" opacity="0.5"/>
  <path d="M 128 90 Q 136 88 144 90 T 160 90" stroke="#29b6f6" fill="none" stroke-width="1" opacity="0.5"/>
  
  <!-- Tile 22: Deep water -->
  <rect x="160" y="64" width="32" height="32" fill="#0288d1"/>
  <path d="M 160 74 Q 168 72 176 74 T 192 74" stroke="#0277bd" fill="none" stroke-width="1" opacity="0.5"/>
  <path d="M 160 82 Q 168 80 176 82 T 192 82" stroke="#0277bd" fill="none" stroke-width="1" opacity="0.5"/>
  <path d="M 160 90 Q 168 88 176 90 T 192 90" stroke="#0277bd" fill="none" stroke-width="1" opacity="0.5"/>
  
  <!-- Tile 23: Ice/Snow -->
  <rect x="192" y="64" width="32" height="32" fill="#e1f5fe"/>
  <circle cx="196" cy="68" r="1.5" fill="#b3e5fc" opacity="0.5"/>
  <circle cx="202" cy="70" r="2" fill="#b3e5fc" opacity="0.5"/>
  <circle cx="208" cy="68" r="1.5" fill="#b3e5fc" opacity="0.5"/>
  <circle cx="214" cy="72" r="2" fill="#b3e5fc" opacity="0.5"/>
  <circle cx="220" cy="70" r="1.5" fill="#b3e5fc" opacity="0.5"/>
  <circle cx="198" cy="78" r="2" fill="#b3e5fc" opacity="0.5"/>
  <circle cx="206" cy="82" r="1.5" fill="#b3e5fc" opacity="0.5"/>
  <circle cx="216" cy="84" r="2" fill="#b3e5fc" opacity="0.5"/>
  <circle cx="200" cy="88" r="1.5" fill="#b3e5fc" opacity="0.5"/>
  <circle cx="212" cy="92" r="2" fill="#b3e5fc" opacity="0.5"/>
  
  <!-- Tile 24: Lava/Hot -->
  <rect x="224" y="64" width="32" height="32" fill="#ff5722"/>
  <circle cx="228" cy="68" r="2" fill="#f44336" opacity="0.7"/>
  <circle cx="236" cy="70" r="3" fill="#f44336" opacity="0.7"/>
  <circle cx="244" cy="68" r="2" fill="#f44336" opacity="0.7"/>
  <circle cx="252" cy="72" r="3" fill="#f44336" opacity="0.7"/>
  <circle cx="230" cy="78" r="3" fill="#f44336" opacity="0.7"/>
  <circle cx="240" cy="82" r="2" fill="#f44336" opacity="0.7"/>
  <circle cx="248" cy="84" r="3" fill="#f44336" opacity="0.7"/>
  <circle cx="234" cy="88" r="2" fill="#f44336" opacity="0.7"/>
  <circle cx="246" cy="92" r="3" fill="#f44336" opacity="0.7"/>
  
  <!-- Grid lines for clarity (optional - comment out if not needed) -->
  <g stroke="#000000" stroke-width="0.5" opacity="0.1">
    <!-- Vertical lines -->
    <line x1="32" y1="0" x2="32" y2="96"/>
    <line x1="64" y1="0" x2="64" y2="96"/>
    <line x1="96" y1="0" x2="96" y2="96"/>
    <line x1="128" y1="0" x2="128" y2="96"/>
    <line x1="160" y1="0" x2="160" y2="96"/>
    <line x1="192" y1="0" x2="192" y2="96"/>
    <line x1="224" y1="0" x2="224" y2="96"/>
    <line x1="256" y1="0" x2="256" y2="96"/>
    
    <!-- Horizontal lines -->
    <line x1="0" y1="32" x2="256" y2="32"/>
    <line x1="0" y1="64" x2="256" y2="64"/>
    <line x1="0" y1="96" x2="256" y2="96"/>
  </g>
</svg>